// Midi file was taken from Mutopia Project www.mutopiaproject.org
// Song: Flea as a bird from M.S.B. Dana (1810-1883) placed in the public domain.
// The file fleebird.mid was converted into this hex version using the util "bin2C"

const unsigned char Mucke[6741] = {
    0x4D, 0x54, 0x68, 0x64, 0x00, 0x00, 0x00, 0x06, 0x00, 0x01, 0x00, 0x06, 0x01, 0x80, 0x4D, 0x54,
    0x72, 0x6B, 0x00, 0x00, 0x00, 0xF8, 0x00, 0xFF, 0x01, 0x27, 0x43, 0x72, 0x65, 0x61, 0x74, 0x6F,
    0x72, 0x3A, 0x20, 0x47, 0x4E, 0x55, 0x20, 0x4C, 0x69, 0x6C, 0x79, 0x50, 0x6F, 0x6E, 0x64, 0x20,
    0x32, 0x2E, 0x36, 0x2E, 0x34, 0x20, 0x20, 0x20, 0x20, 0x20, 0x20, 0x20, 0x20, 0x20, 0x20, 0x20,
    0x20, 0x00, 0xFF, 0x01, 0x3A, 0x47, 0x65, 0x6E, 0x65, 0x72, 0x61, 0x74, 0x65, 0x64, 0x20, 0x61,
    0x75, 0x74, 0x6F, 0x6D, 0x61, 0x74, 0x69, 0x63, 0x61, 0x6C, 0x6C, 0x79, 0x20, 0x62, 0x79, 0x3A,
    0x20, 0x47, 0x4E, 0x55, 0x20, 0x4C, 0x69, 0x6C, 0x79, 0x50, 0x6F, 0x6E, 0x64, 0x20, 0x32, 0x2E,
    0x36, 0x2E, 0x34, 0x20, 0x20, 0x20, 0x20, 0x20, 0x20, 0x20, 0x20, 0x20, 0x20, 0x20, 0x20, 0x00,
    0xFF, 0x01, 0x3C, 0x61, 0x74, 0x20, 0x46, 0x72, 0x69, 0x20, 0x4E, 0x6F, 0x76, 0x20, 0x32, 0x35,
    0x20, 0x31, 0x37, 0x3A, 0x32, 0x37, 0x3A, 0x31, 0x32, 0x20, 0x32, 0x30, 0x30, 0x35, 0x20, 0x20,
    0x20, 0x20, 0x20, 0x20, 0x20, 0x20, 0x20, 0x20, 0x20, 0x20, 0x20, 0x20, 0x20, 0x20, 0x20, 0x20,
    0x20, 0x20, 0x20, 0x20, 0x20, 0x20, 0x20, 0x20, 0x20, 0x20, 0x20, 0x20, 0x20, 0x20, 0x20, 0x00,
    0xFF, 0x01, 0x3C, 0x61, 0x74, 0x20, 0x46, 0x72, 0x69, 0x20, 0x4E, 0x6F, 0x76, 0x20, 0x32, 0x35,
    0x20, 0x31, 0x37, 0x3A, 0x32, 0x37, 0x3A, 0x31, 0x32, 0x20, 0x32, 0x30, 0x30, 0x35, 0x20, 0x20,
    0x20, 0x20, 0x20, 0x20, 0x20, 0x20, 0x20, 0x20, 0x20, 0x20, 0x20, 0x20, 0x20, 0x20, 0x20, 0x20,
    0x20, 0x20, 0x20, 0x20, 0x20, 0x20, 0x20, 0x20, 0x20, 0x20, 0x20, 0x20, 0x20, 0x20, 0x20, 0x00,
    0xFF, 0x03, 0x07, 0x54, 0x72, 0x61, 0x63, 0x6B, 0x20, 0x30, 0x00, 0xFF, 0x2F, 0x00, 0x4D, 0x54,
    0x72, 0x6B, 0x00, 0x00, 0x05, 0x9D, 0x00, 0xC0, 0x28, 0x00, 0xFF, 0x04, 0x06, 0x76, 0x69, 0x6F,
    0x6C, 0x69, 0x6E, 0x00, 0xFF, 0x59, 0x02, 0xFF, 0x01, 0x00, 0xFF, 0x58, 0x04, 0x04, 0x02, 0x12,
    0x08, 0x00, 0xFF, 0x03, 0x00, 0x00, 0xFF, 0x51, 0x03, 0x0C, 0xB7, 0x35, 0x8C, 0x00, 0x90, 0x3E,
    0x7F, 0x83, 0x00, 0x80, 0x3E, 0x40, 0x00, 0x90, 0x45, 0x7F, 0x82, 0x20, 0x80, 0x45, 0x40, 0x00,
    0x90, 0x45, 0x7F, 0x60, 0x80, 0x45, 0x40, 0x00, 0x90, 0x45, 0x7F, 0x83, 0x00, 0x80, 0x45, 0x40,
    0x00, 0x90, 0x46, 0x7F, 0x82, 0x20, 0x80, 0x46, 0x40, 0x00, 0x90, 0x45, 0x7F, 0x60, 0x80, 0x45,
    0x40, 0x00, 0x90, 0x45, 0x7F, 0x84, 0x40, 0x80, 0x45, 0x40, 0x00, 0x90, 0x43, 0x7F, 0x60, 0x80,
    0x43, 0x40, 0x00, 0x90, 0x41, 0x7F, 0x60, 0x80, 0x41, 0x40, 0x00, 0x90, 0x40, 0x7F, 0x86, 0x00,
    0x80, 0x40, 0x40, 0x00, 0x90, 0x3E, 0x7F, 0x83, 0x00, 0x80, 0x3E, 0x40, 0x00, 0x90, 0x41, 0x7F,
    0x82, 0x20, 0x80, 0x41, 0x40, 0x00, 0x90, 0x41, 0x7F, 0x60, 0x80, 0x41, 0x40, 0x00, 0x90, 0x43,
    0x7F, 0x83, 0x00, 0x80, 0x43, 0x40, 0x00, 0x90, 0x44, 0x7F, 0x82, 0x20, 0x80, 0x44, 0x40, 0x00,
    0x90, 0x44, 0x7F, 0x60, 0x80, 0x44, 0x40, 0x00, 0x90, 0x45, 0x7F, 0x86, 0x00, 0x80, 0x45, 0x40,
    0x00, 0x90, 0x40, 0x7F, 0x83, 0x00, 0x80, 0x40, 0x40, 0x83, 0x00, 0x90, 0x3E, 0x7F, 0x83, 0x00,
    0x80, 0x3E, 0x40, 0x00, 0x90, 0x45, 0x7F, 0x82, 0x20, 0x80, 0x45, 0x40, 0x00, 0x90, 0x45, 0x7F,
    0x60, 0x80, 0x45, 0x40, 0x00, 0x90, 0x45, 0x7F, 0x83, 0x00, 0x80, 0x45, 0x40, 0x00, 0x90, 0x46,
    0x7F, 0x82, 0x20, 0x80, 0x46, 0x40, 0x00, 0x90, 0x45, 0x7F, 0x60, 0x80, 0x45, 0x40, 0x00, 0x90,
    0x45, 0x7F, 0x84, 0x40, 0x80, 0x45, 0x40, 0x00, 0x90, 0x43, 0x7F, 0x60, 0x80, 0x43, 0x40, 0x00,
    0x90, 0x41, 0x7F, 0x60, 0x80, 0x41, 0x40, 0x00, 0x90, 0x40, 0x7F, 0x83, 0x00, 0x80, 0x40, 0x40,
    0x83, 0x00, 0x90, 0x3E, 0x7F, 0x83, 0x00, 0x80, 0x3E, 0x40, 0x00, 0x90, 0x41, 0x7F, 0x82, 0x20,
    0x80, 0x41, 0x40, 0x00, 0x90, 0x41, 0x7F, 0x60, 0x80, 0x41, 0x40, 0x00, 0x90, 0x40, 0x7F, 0x83,
    0x00, 0x80, 0x40, 0x40, 0x00, 0x90, 0x45, 0x7F, 0x82, 0x20, 0x80, 0x45, 0x40, 0x00, 0x90, 0x45,
    0x7F, 0x60, 0x80, 0x45, 0x40, 0x00, 0x90, 0x3E, 0x7F, 0x89, 0x00, 0x80, 0x3E, 0x40, 0x83, 0x00,
    0x90, 0x41, 0x7F, 0x83, 0x00, 0x80, 0x41, 0x40, 0x00, 0x90, 0x45, 0x7F, 0x82, 0x20, 0x80, 0x45,
    0x40, 0x00, 0x90, 0x43, 0x7F, 0x60, 0x80, 0x43, 0x40, 0x00, 0x90, 0x41, 0x7F, 0x83, 0x00, 0x80,
    0x41, 0x40, 0x00, 0x90, 0x4A, 0x7F, 0x82, 0x20, 0x80, 0x4A, 0x40, 0x00, 0x90, 0x48, 0x7F, 0x60,
    0x80, 0x48, 0x40, 0x00, 0x90, 0x48, 0x7F, 0x84, 0x40, 0x80, 0x48, 0x40, 0x00, 0x90, 0x46, 0x7F,
    0x60, 0x80, 0x46, 0x40, 0x00, 0x90, 0x45, 0x7F, 0x60, 0x80, 0x45, 0x40, 0x00, 0x90, 0x43, 0x7F,
    0x83, 0x00, 0x80, 0x43, 0x40, 0x83, 0x00, 0x90, 0x45, 0x7F, 0x83, 0x00, 0x80, 0x45, 0x40, 0x00,
    0x90, 0x43, 0x7F, 0x82, 0x20, 0x80, 0x43, 0x40, 0x00, 0x90, 0x45, 0x7F, 0x60, 0x80, 0x45, 0x40,
    0x00, 0x90, 0x48, 0x7F, 0x81, 0x40, 0x80, 0x48, 0x40, 0x00, 0x90, 0x46, 0x7F, 0x81, 0x40, 0x80,
    0x46, 0x40, 0x00, 0x90, 0x45, 0x7F, 0x81, 0x40, 0x80, 0x45, 0x40, 0x00, 0x90, 0x43, 0x7F, 0x81,
    0x40, 0x80, 0x43, 0x40, 0x00, 0x90, 0x41, 0x7F, 0x86, 0x00, 0x80, 0x41, 0x40, 0x00, 0x90, 0x40,
    0x7F, 0x83, 0x00, 0x80, 0x40, 0x40, 0x83, 0x00, 0x90, 0x3E, 0x7F, 0x83, 0x00, 0x80, 0x3E, 0x40,
    0x00, 0x90, 0x45, 0x7F, 0x82, 0x20, 0x80, 0x45, 0x40, 0x00, 0x90, 0x45, 0x7F, 0x60, 0x80, 0x45,
    0x40, 0x00, 0x90, 0x45, 0x7F, 0x83, 0x00, 0x80, 0x45, 0x40, 0x00, 0x90, 0x46, 0x7F, 0x82, 0x20,
    0x80, 0x46, 0x40, 0x00, 0x90, 0x45, 0x7F, 0x60, 0x80, 0x45, 0x40, 0x00, 0x90, 0x45, 0x7F, 0x84,
    0x40, 0x80, 0x45, 0x40, 0x00, 0x90, 0x43, 0x7F, 0x60, 0x80, 0x43, 0x40, 0x00, 0x90, 0x41, 0x7F,
    0x60, 0x80, 0x41, 0x40, 0x00, 0x90, 0x40, 0x7F, 0x83, 0x00, 0x80, 0x40, 0x40, 0x83, 0x00, 0x90,
    0x3E, 0x7F, 0x83, 0x00, 0x80, 0x3E, 0x40, 0x00, 0x90, 0x41, 0x7F, 0x82, 0x20, 0x80, 0x41, 0x40,
    0x00, 0x90, 0x41, 0x7F, 0x60, 0x80, 0x41, 0x40, 0x00, 0x90, 0x40, 0x7F, 0x83, 0x00, 0x80, 0x40,
    0x40, 0x00, 0x90, 0x45, 0x7F, 0x82, 0x20, 0x80, 0x45, 0x40, 0x00, 0x90, 0x45, 0x7F, 0x60, 0x80,
    0x45, 0x40, 0x00, 0x90, 0x3E, 0x7F, 0x86, 0x00, 0x80, 0x3E, 0x40, 0x00, 0x90, 0x46, 0x7F, 0x86,
    0x00, 0x80, 0x46, 0x40, 0x00, 0x90, 0x45, 0x7F, 0x83, 0x00, 0x80, 0x45, 0x40, 0x00, 0x90, 0x41,
    0x7F, 0x82, 0x20, 0x80, 0x41, 0x40, 0x00, 0x90, 0x3E, 0x7F, 0x60, 0x80, 0x3E, 0x40, 0x00, 0x90,
    0x39, 0x7F, 0x83, 0x00, 0x80, 0x39, 0x40, 0x00, 0x90, 0x41, 0x7F, 0x82, 0x20, 0x80, 0x41, 0x40,
    0x00, 0x90, 0x40, 0x7F, 0x60, 0x80, 0x40, 0x40, 0x00, 0x90, 0x3E, 0x7F, 0x89, 0x00, 0x80, 0x3E,
    0x40, 0xB3, 0x00, 0x90, 0x3E, 0x7F, 0x83, 0x00, 0x80, 0x3E, 0x40, 0x00, 0x90, 0x45, 0x7F, 0x82,
    0x20, 0x80, 0x45, 0x40, 0x00, 0x90, 0x45, 0x7F, 0x60, 0x80, 0x45, 0x40, 0x00, 0x90, 0x45, 0x7F,
    0x83, 0x00, 0x80, 0x45, 0x40, 0x00, 0x90, 0x46, 0x7F, 0x82, 0x20, 0x80, 0x46, 0x40, 0x00, 0x90,
    0x45, 0x7F, 0x60, 0x80, 0x45, 0x40, 0x00, 0x90, 0x45, 0x7F, 0x84, 0x40, 0x80, 0x45, 0x40, 0x00,
    0x90, 0x43, 0x7F, 0x60, 0x80, 0x43, 0x40, 0x00, 0x90, 0x41, 0x7F, 0x60, 0x80, 0x41, 0x40, 0x00,
    0x90, 0x40, 0x7F, 0x86, 0x00, 0x80, 0x40, 0x40, 0x00, 0x90, 0x3E, 0x7F, 0x83, 0x00, 0x80, 0x3E,
    0x40, 0x00, 0x90, 0x41, 0x7F, 0x82, 0x20, 0x80, 0x41, 0x40, 0x00, 0x90, 0x41, 0x7F, 0x60, 0x80,
    0x41, 0x40, 0x00, 0x90, 0x43, 0x7F, 0x83, 0x00, 0x80, 0x43, 0x40, 0x00, 0x90, 0x44, 0x7F, 0x82,
    0x20, 0x80, 0x44, 0x40, 0x00, 0x90, 0x44, 0x7F, 0x60, 0x80, 0x44, 0x40, 0x00, 0x90, 0x45, 0x7F,
    0x86, 0x00, 0x80, 0x45, 0x40, 0x00, 0x90, 0x40, 0x7F, 0x83, 0x00, 0x80, 0x40, 0x40, 0x83, 0x00,
    0x90, 0x3E, 0x7F, 0x83, 0x00, 0x80, 0x3E, 0x40, 0x00, 0x90, 0x45, 0x7F, 0x82, 0x20, 0x80, 0x45,
    0x40, 0x00, 0x90, 0x45, 0x7F, 0x60, 0x80, 0x45, 0x40, 0x00, 0x90, 0x45, 0x7F, 0x83, 0x00, 0x80,
    0x45, 0x40, 0x00, 0x90, 0x46, 0x7F, 0x82, 0x20, 0x80, 0x46, 0x40, 0x00, 0x90, 0x45, 0x7F, 0x60,
    0x80, 0x45, 0x40, 0x00, 0x90, 0x45, 0x7F, 0x84, 0x40, 0x80, 0x45, 0x40, 0x00, 0x90, 0x43, 0x7F,
    0x60, 0x80, 0x43, 0x40, 0x00, 0x90, 0x41, 0x7F, 0x60, 0x80, 0x41, 0x40, 0x00, 0x90, 0x40, 0x7F,
    0x83, 0x00, 0x80, 0x40, 0x40, 0x83, 0x00, 0x90, 0x3E, 0x7F, 0x83, 0x00, 0x80, 0x3E, 0x40, 0x00,
    0x90, 0x41, 0x7F, 0x82, 0x20, 0x80, 0x41, 0x40, 0x00, 0x90, 0x41, 0x7F, 0x60, 0x80, 0x41, 0x40,
    0x00, 0x90, 0x40, 0x7F, 0x83, 0x00, 0x80, 0x40, 0x40, 0x00, 0x90, 0x45, 0x7F, 0x82, 0x20, 0x80,
    0x45, 0x40, 0x00, 0x90, 0x45, 0x7F, 0x60, 0x80, 0x45, 0x40, 0x00, 0x90, 0x3E, 0x7F, 0x89, 0x00,
    0x80, 0x3E, 0x40, 0x83, 0x00, 0x90, 0x41, 0x7F, 0x83, 0x00, 0x80, 0x41, 0x40, 0x00, 0x90, 0x45,
    0x7F, 0x82, 0x20, 0x80, 0x45, 0x40, 0x00, 0x90, 0x43, 0x7F, 0x60, 0x80, 0x43, 0x40, 0x00, 0x90,
    0x41, 0x7F, 0x83, 0x00, 0x80, 0x41, 0x40, 0x00, 0x90, 0x4A, 0x7F, 0x82, 0x20, 0x80, 0x4A, 0x40,
    0x00, 0x90, 0x48, 0x7F, 0x60, 0x80, 0x48, 0x40, 0x00, 0x90, 0x48, 0x7F, 0x84, 0x40, 0x80, 0x48,
    0x40, 0x00, 0x90, 0x46, 0x7F, 0x60, 0x80, 0x46, 0x40, 0x00, 0x90, 0x45, 0x7F, 0x60, 0x80, 0x45,
    0x40, 0x00, 0x90, 0x43, 0x7F, 0x83, 0x00, 0x80, 0x43, 0x40, 0x83, 0x00, 0x90, 0x45, 0x7F, 0x83,
    0x00, 0x80, 0x45, 0x40, 0x00, 0x90, 0x43, 0x7F, 0x82, 0x20, 0x80, 0x43, 0x40, 0x00, 0x90, 0x45,
    0x7F, 0x60, 0x80, 0x45, 0x40, 0x00, 0x90, 0x48, 0x7F, 0x81, 0x40, 0x80, 0x48, 0x40, 0x00, 0x90,
    0x46, 0x7F, 0x81, 0x40, 0x80, 0x46, 0x40, 0x00, 0x90, 0x45, 0x7F, 0x81, 0x40, 0x80, 0x45, 0x40,
    0x00, 0x90, 0x43, 0x7F, 0x81, 0x40, 0x80, 0x43, 0x40, 0x00, 0x90, 0x41, 0x7F, 0x86, 0x00, 0x80,
    0x41, 0x40, 0x00, 0x90, 0x40, 0x7F, 0x83, 0x00, 0x80, 0x40, 0x40, 0x83, 0x00, 0x90, 0x3E, 0x7F,
    0x83, 0x00, 0x80, 0x3E, 0x40, 0x00, 0x90, 0x45, 0x7F, 0x82, 0x20, 0x80, 0x45, 0x40, 0x00, 0x90,
    0x45, 0x7F, 0x60, 0x80, 0x45, 0x40, 0x00, 0x90, 0x45, 0x7F, 0x83, 0x00, 0x80, 0x45, 0x40, 0x00,
    0x90, 0x46, 0x7F, 0x82, 0x20, 0x80, 0x46, 0x40, 0x00, 0x90, 0x45, 0x7F, 0x60, 0x80, 0x45, 0x40,
    0x00, 0x90, 0x45, 0x7F, 0x84, 0x40, 0x80, 0x45, 0x40, 0x00, 0x90, 0x43, 0x7F, 0x60, 0x80, 0x43,
    0x40, 0x00, 0x90, 0x41, 0x7F, 0x60, 0x80, 0x41, 0x40, 0x00, 0x90, 0x40, 0x7F, 0x83, 0x00, 0x80,
    0x40, 0x40, 0x81, 0x40, 0x90, 0x40, 0x7F, 0x81, 0x40, 0x80, 0x40, 0x40, 0x00, 0x90, 0x3E, 0x7F,
    0x83, 0x00, 0x80, 0x3E, 0x40, 0x00, 0x90, 0x41, 0x7F, 0x82, 0x20, 0x80, 0x41, 0x40, 0x00, 0x90,
    0x41, 0x7F, 0x60, 0x80, 0x41, 0x40, 0x00, 0x90, 0x40, 0x7F, 0x83, 0x00, 0x80, 0x40, 0x40, 0x00,
    0x90, 0x45, 0x7F, 0x82, 0x20, 0x80, 0x45, 0x40, 0x00, 0x90, 0x45, 0x7F, 0x60, 0x80, 0x45, 0x40,
    0x00, 0x90, 0x3E, 0x7F, 0x86, 0x00, 0x80, 0x3E, 0x40, 0x00, 0x90, 0x46, 0x7F, 0x86, 0x00, 0x80,
    0x46, 0x40, 0x00, 0x90, 0x45, 0x7F, 0x83, 0x00, 0x80, 0x45, 0x40, 0x00, 0x90, 0x41, 0x7F, 0x82,
    0x20, 0x80, 0x41, 0x40, 0x00, 0x90, 0x3E, 0x7F, 0x60, 0x80, 0x3E, 0x40, 0x00, 0x90, 0x39, 0x7F,
    0x83, 0x00, 0x80, 0x39, 0x40, 0x00, 0x90, 0x41, 0x7F, 0x82, 0x20, 0x80, 0x41, 0x40, 0x00, 0x90,
    0x40, 0x7F, 0x60, 0x80, 0x40, 0x40, 0x00, 0x90, 0x3E, 0x7F, 0x89, 0x00, 0x80, 0x3E, 0x40, 0x00,
    0xFF, 0x2F, 0x00, 0x4D, 0x54, 0x72, 0x6B, 0x00, 0x00, 0x00, 0x1B, 0x00, 0xFF, 0x58, 0x04, 0x04,
    0x02, 0x12, 0x08, 0x00, 0xFF, 0x03, 0x04, 0x5C, 0x6E, 0x65, 0x77, 0x00, 0xFF, 0x51, 0x03, 0x0C,
    0xB7, 0x35, 0x00, 0xFF, 0x2F, 0x00, 0x4D, 0x54, 0x72, 0x6B, 0x00, 0x00, 0x00, 0x1D, 0x00, 0xFF,
    0x58, 0x04, 0x04, 0x02, 0x12, 0x08, 0x00, 0xFF, 0x03, 0x06, 0x56, 0x65, 0x72, 0x4F, 0x6E, 0x65,
    0x00, 0xFF, 0x51, 0x03, 0x0C, 0xB7, 0x35, 0x00, 0xFF, 0x2F, 0x00, 0x4D, 0x54, 0x72, 0x6B, 0x00,
    0x00, 0x0E, 0x90, 0x00, 0xC3, 0x00, 0x00, 0xFF, 0x04, 0x0E, 0x61, 0x63, 0x6F, 0x75, 0x73, 0x74,
    0x69, 0x63, 0x20, 0x67, 0x72, 0x61, 0x6E, 0x64, 0x00, 0xFF, 0x59, 0x02, 0xFF, 0x01, 0x00, 0xFF,
    0x58, 0x04, 0x04, 0x02, 0x12, 0x08, 0x00, 0xFF, 0x03, 0x02, 0x75, 0x70, 0x00, 0xFF, 0x51, 0x03,
    0x0C, 0xB7, 0x35, 0x81, 0x40, 0x93, 0x39, 0x7F, 0x81, 0x40, 0x83, 0x39, 0x40, 0x00, 0x93, 0x41,
    0x7F, 0x00, 0x93, 0x3E, 0x7F, 0x81, 0x40, 0x83, 0x41, 0x40, 0x00, 0x83, 0x3E, 0x40, 0x00, 0x93,
    0x39, 0x7F, 0x81, 0x40, 0x83, 0x39, 0x40, 0x00, 0x93, 0x41, 0x7F, 0x00, 0x93, 0x3E, 0x7F, 0x81,
    0x40, 0x83, 0x41, 0x40, 0x00, 0x83, 0x3E, 0x40, 0x00, 0x93, 0x39, 0x7F, 0x81, 0x40, 0x83, 0x39,
    0x40, 0x00, 0x93, 0x41, 0x7F, 0x00, 0x93, 0x3E, 0x7F, 0x81, 0x40, 0x83, 0x41, 0x40, 0x00, 0x83,
    0x3E, 0x40, 0x00, 0x93, 0x39, 0x7F, 0x81, 0x40, 0x83, 0x39, 0x40, 0x81, 0x40, 0x93, 0x39, 0x7F,
    0x81, 0x40, 0x83, 0x39, 0x40, 0x00, 0x93, 0x41, 0x7F, 0x00, 0x93, 0x3E, 0x7F, 0x81, 0x40, 0x83,
    0x41, 0x40, 0x00, 0x83, 0x3E, 0x40, 0x00, 0x93, 0x39, 0x7F, 0x81, 0x40, 0x83, 0x39, 0x40, 0x00,
    0x93, 0x41, 0x7F, 0x00, 0x93, 0x3E, 0x7F, 0x81, 0x40, 0x83, 0x41, 0x40, 0x00, 0x83, 0x3E, 0x40,
    0x00, 0x93, 0x39, 0x7F, 0x81, 0x40, 0x83, 0x39, 0x40, 0x00, 0x93, 0x41, 0x7F, 0x00, 0x93, 0x3E,
    0x7F, 0x81, 0x40, 0x83, 0x41, 0x40, 0x00, 0x83, 0x3E, 0x40, 0x00, 0x93, 0x39, 0x7F, 0x81, 0x40,
    0x83, 0x39, 0x40, 0x81, 0x40, 0x93, 0x39, 0x7F, 0x81, 0x40, 0x83, 0x39, 0x40, 0x00, 0x93, 0x43,
    0x7F, 0x00, 0x93, 0x40, 0x7F, 0x00, 0x93, 0x3D, 0x7F, 0x81, 0x40, 0x83, 0x43, 0x40, 0x00, 0x83,
    0x40, 0x40, 0x00, 0x83, 0x3D, 0x40, 0x00, 0x93, 0x39, 0x7F, 0x81, 0x40, 0x83, 0x39, 0x40, 0x00,
    0x93, 0x43, 0x7F, 0x00, 0x93, 0x40, 0x7F, 0x00, 0x93, 0x3D, 0x7F, 0x81, 0x40, 0x83, 0x43, 0x40,
    0x00, 0x83, 0x40, 0x40, 0x00, 0x83, 0x3D, 0x40, 0x00, 0x93, 0x39, 0x7F, 0x81, 0x40, 0x83, 0x39,
    0x40, 0x00, 0x93, 0x43, 0x7F, 0x00, 0x93, 0x40, 0x7F, 0x00, 0x93, 0x3D, 0x7F, 0x81, 0x40, 0x83,
    0x43, 0x40, 0x00, 0x83, 0x40, 0x40, 0x00, 0x83, 0x3D, 0x40, 0x00, 0x93, 0x39, 0x7F, 0x81, 0x40,
    0x83, 0x39, 0x40, 0x81, 0x40, 0x93, 0x39, 0x7F, 0x81, 0x40, 0x83, 0x39, 0x40, 0x00, 0x93, 0x41,
    0x7F, 0x00, 0x93, 0x3E, 0x7F, 0x81, 0x40, 0x83, 0x41, 0x40, 0x00, 0x83, 0x3E, 0x40, 0x00, 0x93,
    0x39, 0x7F, 0x81, 0x40, 0x83, 0x39, 0x40, 0x81, 0x40, 0x93, 0x43, 0x7F, 0x00, 0x93, 0x41, 0x7F,
    0x00, 0x93, 0x3E, 0x7F, 0x81, 0x40, 0x83, 0x43, 0x40, 0x00, 0x83, 0x41, 0x40, 0x00, 0x83, 0x3E,
    0x40, 0x81, 0x40, 0x93, 0x44, 0x7F, 0x00, 0x93, 0x41, 0x7F, 0x00, 0x93, 0x3E, 0x7F, 0x81, 0x40,
    0x83, 0x44, 0x40, 0x00, 0x83, 0x41, 0x40, 0x00, 0x83, 0x3E, 0x40, 0x81, 0x40, 0x93, 0x39, 0x7F,
    0x81, 0x40, 0x83, 0x39, 0x40, 0x00, 0x93, 0x45, 0x7F, 0x00, 0x93, 0x41, 0x7F, 0x00, 0x93, 0x3E,
    0x7F, 0x81, 0x40, 0x83, 0x45, 0x40, 0x00, 0x83, 0x41, 0x40, 0x00, 0x83, 0x3E, 0x40, 0x00, 0x93,
    0x39, 0x7F, 0x81, 0x40, 0x83, 0x39, 0x40, 0x81, 0x40, 0x93, 0x39, 0x7F, 0x81, 0x40, 0x83, 0x39,
    0x40, 0x00, 0x93, 0x43, 0x7F, 0x00, 0x93, 0x40, 0x7F, 0x00, 0x93, 0x3D, 0x7F, 0x81, 0x40, 0x83,
    0x43, 0x40, 0x00, 0x83, 0x40, 0x40, 0x00, 0x83, 0x3D, 0x40, 0x00, 0x93, 0x39, 0x7F, 0x81, 0x40,
    0x83, 0x39, 0x40, 0x81, 0x40, 0x93, 0x39, 0x7F, 0x81, 0x40, 0x83, 0x39, 0x40, 0x00, 0x93, 0x41,
    0x7F, 0x00, 0x93, 0x3E, 0x7F, 0x81, 0x40, 0x83, 0x41, 0x40, 0x00, 0x83, 0x3E, 0x40, 0x00, 0x93,
    0x39, 0x7F, 0x81, 0x40, 0x83, 0x39, 0x40, 0x00, 0x93, 0x41, 0x7F, 0x00, 0x93, 0x3E, 0x7F, 0x81,
    0x40, 0x83, 0x41, 0x40, 0x00, 0x83, 0x3E, 0x40, 0x00, 0x93, 0x39, 0x7F, 0x81, 0x40, 0x83, 0x39,
    0x40, 0x00, 0x93, 0x41, 0x7F, 0x00, 0x93, 0x3E, 0x7F, 0x81, 0x40, 0x83, 0x41, 0x40, 0x00, 0x83,
    0x3E, 0x40, 0x00, 0x93, 0x39, 0x7F, 0x81, 0x40, 0x83, 0x39, 0x40, 0x81, 0x40, 0x93, 0x39, 0x7F,
    0x81, 0x40, 0x83, 0x39, 0x40, 0x00, 0x93, 0x43, 0x7F, 0x00, 0x93, 0x40, 0x7F, 0x00, 0x93, 0x3D,
    0x7F, 0x81, 0x40, 0x83, 0x43, 0x40, 0x00, 0x83, 0x40, 0x40, 0x00, 0x83, 0x3D, 0x40, 0x00, 0x93,
    0x39, 0x7F, 0x81, 0x40, 0x83, 0x39, 0x40, 0x00, 0x93, 0x43, 0x7F, 0x00, 0x93, 0x40, 0x7F, 0x00,
    0x93, 0x3D, 0x7F, 0x81, 0x40, 0x83, 0x43, 0x40, 0x00, 0x83, 0x40, 0x40, 0x00, 0x83, 0x3D, 0x40,
    0x00, 0x93, 0x39, 0x7F, 0x81, 0x40, 0x83, 0x39, 0x40, 0x00, 0x93, 0x43, 0x7F, 0x00, 0x93, 0x40,
    0x7F, 0x00, 0x93, 0x3D, 0x7F, 0x81, 0x40, 0x83, 0x43, 0x40, 0x00, 0x83, 0x40, 0x40, 0x00, 0x83,
    0x3D, 0x40, 0x00, 0x93, 0x39, 0x7F, 0x81, 0x40, 0x83, 0x39, 0x40, 0x81, 0x40, 0x93, 0x39, 0x7F,
    0x81, 0x40, 0x83, 0x39, 0x40, 0x00, 0x93, 0x41, 0x7F, 0x00, 0x93, 0x3E, 0x7F, 0x81, 0x40, 0x83,
    0x41, 0x40, 0x00, 0x83, 0x3E, 0x40, 0x00, 0x93, 0x39, 0x7F, 0x81, 0x40, 0x83, 0x39, 0x40, 0x81,
    0x40, 0x93, 0x39, 0x7F, 0x81, 0x40, 0x83, 0x39, 0x40, 0x00, 0x93, 0x43, 0x7F, 0x00, 0x93, 0x40,
    0x7F, 0x00, 0x93, 0x3D, 0x7F, 0x81, 0x40, 0x83, 0x43, 0x40, 0x00, 0x83, 0x40, 0x40, 0x00, 0x83,
    0x3D, 0x40, 0x00, 0x93, 0x39, 0x7F, 0x81, 0x40, 0x83, 0x39, 0x40, 0x81, 0x40, 0x93, 0x39, 0x7F,
    0x81, 0x40, 0x83, 0x39, 0x40, 0x00, 0x93, 0x41, 0x7F, 0x00, 0x93, 0x3E, 0x7F, 0x81, 0x40, 0x83,
    0x41, 0x40, 0x00, 0x83, 0x3E, 0x40, 0x00, 0x93, 0x39, 0x7F, 0x81, 0x40, 0x83, 0x39, 0x40, 0x87,
    0x40, 0x93, 0x3C, 0x7F, 0x81, 0x40, 0x83, 0x3C, 0x40, 0x00, 0x93, 0x45, 0x7F, 0x00, 0x93, 0x41,
    0x7F, 0x81, 0x40, 0x83, 0x45, 0x40, 0x00, 0x83, 0x41, 0x40, 0x00, 0x93, 0x3C, 0x7F, 0x81, 0x40,
    0x83, 0x3C, 0x40, 0x00, 0x93, 0x45, 0x7F, 0x00, 0x93, 0x41, 0x7F, 0x81, 0x40, 0x83, 0x45, 0x40,
    0x00, 0x83, 0x41, 0x40, 0x00, 0x93, 0x3C, 0x7F, 0x81, 0x40, 0x83, 0x3C, 0x40, 0x00, 0x93, 0x45,
    0x7F, 0x00, 0x93, 0x41, 0x7F, 0x81, 0x40, 0x83, 0x45, 0x40, 0x00, 0x83, 0x41, 0x40, 0x00, 0x93,
    0x3C, 0x7F, 0x81, 0x40, 0x83, 0x3C, 0x40, 0x81, 0x40, 0x93, 0x3C, 0x7F, 0x81, 0x40, 0x83, 0x3C,
    0x40, 0x00, 0x93, 0x46, 0x7F, 0x00, 0x93, 0x43, 0x7F, 0x00, 0x93, 0x40, 0x7F, 0x81, 0x40, 0x83,
    0x46, 0x40, 0x00, 0x83, 0x43, 0x40, 0x00, 0x83, 0x40, 0x40, 0x00, 0x93, 0x3C, 0x7F, 0x81, 0x40,
    0x83, 0x3C, 0x40, 0x00, 0x93, 0x46, 0x7F, 0x00, 0x93, 0x43, 0x7F, 0x00, 0x93, 0x40, 0x7F, 0x81,
    0x40, 0x83, 0x46, 0x40, 0x00, 0x83, 0x43, 0x40, 0x00, 0x83, 0x40, 0x40, 0x00, 0x93, 0x3C, 0x7F,
    0x81, 0x40, 0x83, 0x3C, 0x40, 0x00, 0x93, 0x46, 0x7F, 0x00, 0x93, 0x43, 0x7F, 0x00, 0x93, 0x40,
    0x7F, 0x81, 0x40, 0x83, 0x46, 0x40, 0x00, 0x83, 0x43, 0x40, 0x00, 0x83, 0x40, 0x40, 0x00, 0x93,
    0x3C, 0x7F, 0x81, 0x40, 0x83, 0x3C, 0x40, 0x81, 0x40, 0x93, 0x3C, 0x7F, 0x81, 0x40, 0x83, 0x3C,
    0x40, 0x00, 0x93, 0x45, 0x7F, 0x00, 0x93, 0x41, 0x7F, 0x81, 0x40, 0x83, 0x45, 0x40, 0x00, 0x83,
    0x41, 0x40, 0x00, 0x93, 0x3C, 0x7F, 0x81, 0x40, 0x83, 0x3C, 0x40, 0x81, 0x40, 0x93, 0x3A, 0x7F,
    0x81, 0x40, 0x83, 0x3A, 0x40, 0x00, 0x93, 0x43, 0x7F, 0x00, 0x93, 0x40, 0x7F, 0x00, 0x93, 0x3E,
    0x7F, 0x81, 0x40, 0x83, 0x43, 0x40, 0x00, 0x83, 0x40, 0x40, 0x00, 0x83, 0x3E, 0x40, 0x00, 0x93,
    0x3A, 0x7F, 0x81, 0x40, 0x83, 0x3A, 0x40, 0x81, 0x40, 0x93, 0x39, 0x7F, 0x81, 0x40, 0x83, 0x39,
    0x40, 0x00, 0x93, 0x41, 0x7F, 0x00, 0x93, 0x3E, 0x7F, 0x81, 0x40, 0x83, 0x41, 0x40, 0x00, 0x83,
    0x3E, 0x40, 0x00, 0x93, 0x39, 0x7F, 0x81, 0x40, 0x83, 0x39, 0x40, 0x00, 0x93, 0x40, 0x7F, 0x00,
    0x93, 0x3D, 0x7F, 0x81, 0x40, 0x83, 0x40, 0x40, 0x00, 0x83, 0x3D, 0x40, 0x00, 0x93, 0x39, 0x7F,
    0x81, 0x40, 0x83, 0x39, 0x40, 0x00, 0x93, 0x40, 0x7F, 0x00, 0x93, 0x3D, 0x7F, 0x81, 0x40, 0x83,
    0x40, 0x40, 0x00, 0x83, 0x3D, 0x40, 0x00, 0x93, 0x39, 0x7F, 0x81, 0x40, 0x83, 0x39, 0x40, 0x81,
    0x40, 0x93, 0x39, 0x7F, 0x81, 0x40, 0x83, 0x39, 0x40, 0x00, 0x93, 0x41, 0x7F, 0x00, 0x93, 0x3E,
    0x7F, 0x81, 0x40, 0x83, 0x41, 0x40, 0x00, 0x83, 0x3E, 0x40, 0x00, 0x93, 0x39, 0x7F, 0x81, 0x40,
    0x83, 0x39, 0x40, 0x00, 0x93, 0x41, 0x7F, 0x00, 0x93, 0x3E, 0x7F, 0x81, 0x40, 0x83, 0x41, 0x40,
    0x00, 0x83, 0x3E, 0x40, 0x00, 0x93, 0x39, 0x7F, 0x81, 0x40, 0x83, 0x39, 0x40, 0x00, 0x93, 0x41,
    0x7F, 0x00, 0x93, 0x3E, 0x7F, 0x81, 0x40, 0x83, 0x41, 0x40, 0x00, 0x83, 0x3E, 0x40, 0x00, 0x93,
    0x39, 0x7F, 0x81, 0x40, 0x83, 0x39, 0x40, 0x81, 0x40, 0x93, 0x39, 0x7F, 0x81, 0x40, 0x83, 0x39,
    0x40, 0x00, 0x93, 0x43, 0x7F, 0x00, 0x93, 0x40, 0x7F, 0x00, 0x93, 0x3D, 0x7F, 0x81, 0x40, 0x83,
    0x43, 0x40, 0x00, 0x83, 0x40, 0x40, 0x00, 0x83, 0x3D, 0x40, 0x00, 0x93, 0x39, 0x7F, 0x81, 0x40,
    0x83, 0x39, 0x40, 0x00, 0x93, 0x43, 0x7F, 0x00, 0x93, 0x40, 0x7F, 0x00, 0x93, 0x3D, 0x7F, 0x81,
    0x40, 0x83, 0x43, 0x40, 0x00, 0x83, 0x40, 0x40, 0x00, 0x83, 0x3D, 0x40, 0x00, 0x93, 0x39, 0x7F,
    0x81, 0x40, 0x83, 0x39, 0x40, 0x00, 0x93, 0x43, 0x7F, 0x00, 0x93, 0x40, 0x7F, 0x00, 0x93, 0x3D,
    0x7F, 0x81, 0x40, 0x83, 0x43, 0x40, 0x00, 0x83, 0x40, 0x40, 0x00, 0x83, 0x3D, 0x40, 0x00, 0x93,
    0x39, 0x7F, 0x81, 0x40, 0x83, 0x39, 0x40, 0x81, 0x40, 0x93, 0x39, 0x7F, 0x81, 0x40, 0x83, 0x39,
    0x40, 0x00, 0x93, 0x41, 0x7F, 0x00, 0x93, 0x3E, 0x7F, 0x81, 0x40, 0x83, 0x41, 0x40, 0x00, 0x83,
    0x3E, 0x40, 0x00, 0x93, 0x39, 0x7F, 0x81, 0x40, 0x83, 0x39, 0x40, 0x81, 0x40, 0x93, 0x39, 0x7F,
    0x81, 0x40, 0x83, 0x39, 0x40, 0x00, 0x93, 0x43, 0x7F, 0x00, 0x93, 0x40, 0x7F, 0x00, 0x93, 0x3D,
    0x7F, 0x81, 0x40, 0x83, 0x43, 0x40, 0x00, 0x83, 0x40, 0x40, 0x00, 0x83, 0x3D, 0x40, 0x00, 0x93,
    0x39, 0x7F, 0x81, 0x40, 0x83, 0x39, 0x40, 0x00, 0x93, 0x41, 0x7F, 0x00, 0x93, 0x3E, 0x7F, 0x00,
    0x93, 0x39, 0x7F, 0x86, 0x00, 0x83, 0x41, 0x40, 0x00, 0x83, 0x3E, 0x40, 0x00, 0x83, 0x39, 0x40,
    0x00, 0x93, 0x46, 0x7F, 0x00, 0x93, 0x43, 0x7F, 0x00, 0x93, 0x3E, 0x7F, 0x86, 0x00, 0x83, 0x46,
    0x40, 0x00, 0x83, 0x43, 0x40, 0x00, 0x83, 0x3E, 0x40, 0x00, 0x93, 0x45, 0x7F, 0x00, 0x93, 0x41,
    0x7F, 0x00, 0x93, 0x3E, 0x7F, 0x86, 0x00, 0x83, 0x45, 0x40, 0x00, 0x83, 0x41, 0x40, 0x00, 0x83,
    0x3E, 0x40, 0x00, 0x93, 0x43, 0x7F, 0x00, 0x93, 0x40, 0x7F, 0x00, 0x93, 0x3D, 0x7F, 0x00, 0x93,
    0x39, 0x7F, 0x86, 0x00, 0x83, 0x43, 0x40, 0x00, 0x83, 0x40, 0x40, 0x00, 0x83, 0x39, 0x40, 0x00,
    0x83, 0x3D, 0x40, 0x81, 0x40, 0x93, 0x41, 0x7F, 0x81, 0x40, 0x83, 0x41, 0x40, 0x00, 0x93, 0x45,
    0x7F, 0x81, 0x40, 0x83, 0x45, 0x40, 0x00, 0x93, 0x4A, 0x7F, 0x81, 0x40, 0x83, 0x4A, 0x40, 0x00,
    0x93, 0x4D, 0x7F, 0x00, 0x93, 0x45, 0x7F, 0x81, 0x40, 0x83, 0x4D, 0x40, 0x00, 0x83, 0x45, 0x40,
    0x00, 0x93, 0x4A, 0x7F, 0x00, 0x93, 0x41, 0x7F, 0x81, 0x40, 0x83, 0x4A, 0x40, 0x00, 0x83, 0x41,
    0x40, 0x00, 0x93, 0x4C, 0x7F, 0x00, 0x93, 0x43, 0x7F, 0x81, 0x40, 0x83, 0x4C, 0x40, 0x00, 0x83,
    0x43, 0x40, 0x00, 0x93, 0x49, 0x7F, 0x00, 0x93, 0x40, 0x7F, 0x81, 0x40, 0x83, 0x49, 0x40, 0x00,
    0x83, 0x40, 0x40, 0x00, 0x93, 0x4A, 0x7F, 0x00, 0x93, 0x41, 0x7F, 0x81, 0x40, 0x83, 0x4A, 0x40,
    0x00, 0x83, 0x41, 0x40, 0x00, 0x93, 0x39, 0x7F, 0x81, 0x40, 0x83, 0x39, 0x40, 0x00, 0x93, 0x3E,
    0x7F, 0x81, 0x40, 0x83, 0x3E, 0x40, 0x00, 0x93, 0x41, 0x7F, 0x81, 0x40, 0x83, 0x41, 0x40, 0x00,
    0x93, 0x45, 0x7F, 0x00, 0x93, 0x41, 0x7F, 0x81, 0x40, 0x83, 0x45, 0x40, 0x00, 0x83, 0x41, 0x40,
    0x00, 0x93, 0x41, 0x7F, 0x00, 0x93, 0x3E, 0x7F, 0x81, 0x40, 0x83, 0x41, 0x40, 0x00, 0x83, 0x3E,
    0x40, 0x00, 0x93, 0x43, 0x7F, 0x00, 0x93, 0x40, 0x7F, 0x81, 0x40, 0x83, 0x43, 0x40, 0x00, 0x83,
    0x40, 0x40, 0x00, 0x93, 0x40, 0x7F, 0x00, 0x93, 0x3D, 0x7F, 0x81, 0x40, 0x83, 0x40, 0x40, 0x00,
    0x83, 0x3D, 0x40, 0x00, 0x93, 0x3E, 0x7F, 0x86, 0x00, 0x83, 0x3E, 0x40, 0x00, 0x93, 0x41, 0x7F,
    0x00, 0x93, 0x39, 0x7F, 0x81, 0x40, 0x83, 0x41, 0x40, 0x00, 0x83, 0x39, 0x40, 0x00, 0x93, 0x3E,
    0x7F, 0x00, 0x93, 0x35, 0x7F, 0x81, 0x40, 0x83, 0x3E, 0x40, 0x00, 0x83, 0x35, 0x40, 0x00, 0x93,
    0x40, 0x7F, 0x00, 0x93, 0x37, 0x7F, 0x81, 0x40, 0x83, 0x40, 0x40, 0x00, 0x83, 0x37, 0x40, 0x00,
    0x93, 0x3D, 0x7F, 0x00, 0x93, 0x34, 0x7F, 0x81, 0x40, 0x83, 0x3D, 0x40, 0x00, 0x83, 0x34, 0x40,
    0x00, 0x93, 0x3E, 0x7F, 0x00, 0x93, 0x35, 0x7F, 0x8C, 0x00, 0x83, 0x3E, 0x40, 0x00, 0x83, 0x35,
    0x40, 0x81, 0x40, 0x93, 0x39, 0x7F, 0x81, 0x40, 0x83, 0x39, 0x40, 0x00, 0x93, 0x41, 0x7F, 0x00,
    0x93, 0x3E, 0x7F, 0x81, 0x40, 0x83, 0x41, 0x40, 0x00, 0x83, 0x3E, 0x40, 0x00, 0x93, 0x39, 0x7F,
    0x81, 0x40, 0x83, 0x39, 0x40, 0x00, 0x93, 0x41, 0x7F, 0x00, 0x93, 0x3E, 0x7F, 0x81, 0x40, 0x83,
    0x41, 0x40, 0x00, 0x83, 0x3E, 0x40, 0x00, 0x93, 0x39, 0x7F, 0x81, 0x40, 0x83, 0x39, 0x40, 0x00,
    0x93, 0x41, 0x7F, 0x00, 0x93, 0x3E, 0x7F, 0x81, 0x40, 0x83, 0x41, 0x40, 0x00, 0x83, 0x3E, 0x40,
    0x00, 0x93, 0x39, 0x7F, 0x81, 0x40, 0x83, 0x39, 0x40, 0x81, 0x40, 0x93, 0x39, 0x7F, 0x81, 0x40,
    0x83, 0x39, 0x40, 0x00, 0x93, 0x41, 0x7F, 0x00, 0x93, 0x3E, 0x7F, 0x81, 0x40, 0x83, 0x41, 0x40,
    0x00, 0x83, 0x3E, 0x40, 0x00, 0x93, 0x39, 0x7F, 0x81, 0x40, 0x83, 0x39, 0x40, 0x00, 0x93, 0x41,
    0x7F, 0x00, 0x93, 0x3E, 0x7F, 0x81, 0x40, 0x83, 0x41, 0x40, 0x00, 0x83, 0x3E, 0x40, 0x00, 0x93,
    0x39, 0x7F, 0x81, 0x40, 0x83, 0x39, 0x40, 0x00, 0x93, 0x41, 0x7F, 0x00, 0x93, 0x3E, 0x7F, 0x81,
    0x40, 0x83, 0x41, 0x40, 0x00, 0x83, 0x3E, 0x40, 0x00, 0x93, 0x39, 0x7F, 0x81, 0x40, 0x83, 0x39,
    0x40, 0x81, 0x40, 0x93, 0x39, 0x7F, 0x81, 0x40, 0x83, 0x39, 0x40, 0x00, 0x93, 0x43, 0x7F, 0x00,
    0x93, 0x40, 0x7F, 0x00, 0x93, 0x3D, 0x7F, 0x81, 0x40, 0x83, 0x43, 0x40, 0x00, 0x83, 0x40, 0x40,
    0x00, 0x83, 0x3D, 0x40, 0x00, 0x93, 0x39, 0x7F, 0x81, 0x40, 0x83, 0x39, 0x40, 0x00, 0x93, 0x43,
    0x7F, 0x00, 0x93, 0x40, 0x7F, 0x00, 0x93, 0x3D, 0x7F, 0x81, 0x40, 0x83, 0x43, 0x40, 0x00, 0x83,
    0x40, 0x40, 0x00, 0x83, 0x3D, 0x40, 0x00, 0x93, 0x39, 0x7F, 0x81, 0x40, 0x83, 0x39, 0x40, 0x00,
    0x93, 0x43, 0x7F, 0x00, 0x93, 0x40, 0x7F, 0x00, 0x93, 0x3D, 0x7F, 0x81, 0x40, 0x83, 0x43, 0x40,
    0x00, 0x83, 0x40, 0x40, 0x00, 0x83, 0x3D, 0x40, 0x00, 0x93, 0x39, 0x7F, 0x81, 0x40, 0x83, 0x39,
    0x40, 0x81, 0x40, 0x93, 0x39, 0x7F, 0x81, 0x40, 0x83, 0x39, 0x40, 0x00, 0x93, 0x41, 0x7F, 0x00,
    0x93, 0x3E, 0x7F, 0x81, 0x40, 0x83, 0x41, 0x40, 0x00, 0x83, 0x3E, 0x40, 0x00, 0x93, 0x39, 0x7F,
    0x81, 0x40, 0x83, 0x39, 0x40, 0x81, 0x40, 0x93, 0x43, 0x7F, 0x00, 0x93, 0x41, 0x7F, 0x00, 0x93,
    0x3E, 0x7F, 0x81, 0x40, 0x83, 0x43, 0x40, 0x00, 0x83, 0x41, 0x40, 0x00, 0x83, 0x3E, 0x40, 0x81,
    0x40, 0x93, 0x44, 0x7F, 0x00, 0x93, 0x41, 0x7F, 0x00, 0x93, 0x3E, 0x7F, 0x81, 0x40, 0x83, 0x44,
    0x40, 0x00, 0x83, 0x41, 0x40, 0x00, 0x83, 0x3E, 0x40, 0x81, 0x40, 0x93, 0x39, 0x7F, 0x81, 0x40,
    0x83, 0x39, 0x40, 0x00, 0x93, 0x45, 0x7F, 0x00, 0x93, 0x41, 0x7F, 0x00, 0x93, 0x3E, 0x7F, 0x81,
    0x40, 0x83, 0x45, 0x40, 0x00, 0x83, 0x41, 0x40, 0x00, 0x83, 0x3E, 0x40, 0x00, 0x93, 0x39, 0x7F,
    0x81, 0x40, 0x83, 0x39, 0x40, 0x81, 0x40, 0x93, 0x39, 0x7F, 0x81, 0x40, 0x83, 0x39, 0x40, 0x00,
    0x93, 0x43, 0x7F, 0x00, 0x93, 0x40, 0x7F, 0x00, 0x93, 0x3D, 0x7F, 0x81, 0x40, 0x83, 0x43, 0x40,
    0x00, 0x83, 0x40, 0x40, 0x00, 0x83, 0x3D, 0x40, 0x00, 0x93, 0x39, 0x7F, 0x81, 0x40, 0x83, 0x39,
    0x40, 0x81, 0x40, 0x93, 0x39, 0x7F, 0x81, 0x40, 0x83, 0x39, 0x40, 0x00, 0x93, 0x41, 0x7F, 0x00,
    0x93, 0x3E, 0x7F, 0x81, 0x40, 0x83, 0x41, 0x40, 0x00, 0x83, 0x3E, 0x40, 0x00, 0x93, 0x39, 0x7F,
    0x81, 0x40, 0x83, 0x39, 0x40, 0x00, 0x93, 0x41, 0x7F, 0x00, 0x93, 0x3E, 0x7F, 0x81, 0x40, 0x83,
    0x41, 0x40, 0x00, 0x83, 0x3E, 0x40, 0x00, 0x93, 0x39, 0x7F, 0x81, 0x40, 0x83, 0x39, 0x40, 0x00,
    0x93, 0x41, 0x7F, 0x00, 0x93, 0x3E, 0x7F, 0x81, 0x40, 0x83, 0x41, 0x40, 0x00, 0x83, 0x3E, 0x40,
    0x00, 0x93, 0x39, 0x7F, 0x81, 0x40, 0x83, 0x39, 0x40, 0x81, 0x40, 0x93, 0x39, 0x7F, 0x81, 0x40,
    0x83, 0x39, 0x40, 0x00, 0x93, 0x43, 0x7F, 0x00, 0x93, 0x40, 0x7F, 0x00, 0x93, 0x3D, 0x7F, 0x81,
    0x40, 0x83, 0x43, 0x40, 0x00, 0x83, 0x40, 0x40, 0x00, 0x83, 0x3D, 0x40, 0x00, 0x93, 0x39, 0x7F,
    0x81, 0x40, 0x83, 0x39, 0x40, 0x00, 0x93, 0x43, 0x7F, 0x00, 0x93, 0x40, 0x7F, 0x00, 0x93, 0x3D,
    0x7F, 0x81, 0x40, 0x83, 0x43, 0x40, 0x00, 0x83, 0x40, 0x40, 0x00, 0x83, 0x3D, 0x40, 0x00, 0x93,
    0x39, 0x7F, 0x81, 0x40, 0x83, 0x39, 0x40, 0x00, 0x93, 0x43, 0x7F, 0x00, 0x93, 0x40, 0x7F, 0x00,
    0x93, 0x3D, 0x7F, 0x81, 0x40, 0x83, 0x43, 0x40, 0x00, 0x83, 0x40, 0x40, 0x00, 0x83, 0x3D, 0x40,
    0x00, 0x93, 0x39, 0x7F, 0x81, 0x40, 0x83, 0x39, 0x40, 0x81, 0x40, 0x93, 0x39, 0x7F, 0x81, 0x40,
    0x83, 0x39, 0x40, 0x00, 0x93, 0x41, 0x7F, 0x00, 0x93, 0x3E, 0x7F, 0x81, 0x40, 0x83, 0x41, 0x40,
    0x00, 0x83, 0x3E, 0x40, 0x00, 0x93, 0x39, 0x7F, 0x81, 0x40, 0x83, 0x39, 0x40, 0x81, 0x40, 0x93,
    0x39, 0x7F, 0x81, 0x40, 0x83, 0x39, 0x40, 0x00, 0x93, 0x43, 0x7F, 0x00, 0x93, 0x40, 0x7F, 0x00,
    0x93, 0x3D, 0x7F, 0x81, 0x40, 0x83, 0x43, 0x40, 0x00, 0x83, 0x40, 0x40, 0x00, 0x83, 0x3D, 0x40,
    0x00, 0x93, 0x39, 0x7F, 0x81, 0x40, 0x83, 0x39, 0x40, 0x81, 0x40, 0x93, 0x39, 0x7F, 0x81, 0x40,
    0x83, 0x39, 0x40, 0x00, 0x93, 0x41, 0x7F, 0x00, 0x93, 0x3E, 0x7F, 0x81, 0x40, 0x83, 0x41, 0x40,
    0x00, 0x83, 0x3E, 0x40, 0x00, 0x93, 0x39, 0x7F, 0x81, 0x40, 0x83, 0x39, 0x40, 0x87, 0x40, 0x93,
    0x3C, 0x7F, 0x81, 0x40, 0x83, 0x3C, 0x40, 0x00, 0x93, 0x45, 0x7F, 0x00, 0x93, 0x41, 0x7F, 0x81,
    0x40, 0x83, 0x45, 0x40, 0x00, 0x83, 0x41, 0x40, 0x00, 0x93, 0x3C, 0x7F, 0x81, 0x40, 0x83, 0x3C,
    0x40, 0x00, 0x93, 0x45, 0x7F, 0x00, 0x93, 0x41, 0x7F, 0x81, 0x40, 0x83, 0x45, 0x40, 0x00, 0x83,
    0x41, 0x40, 0x00, 0x93, 0x3C, 0x7F, 0x81, 0x40, 0x83, 0x3C, 0x40, 0x00, 0x93, 0x45, 0x7F, 0x00,
    0x93, 0x41, 0x7F, 0x81, 0x40, 0x83, 0x45, 0x40, 0x00, 0x83, 0x41, 0x40, 0x00, 0x93, 0x3C, 0x7F,
    0x81, 0x40, 0x83, 0x3C, 0x40, 0x81, 0x40, 0x93, 0x3C, 0x7F, 0x81, 0x40, 0x83, 0x3C, 0x40, 0x00,
    0x93, 0x46, 0x7F, 0x00, 0x93, 0x43, 0x7F, 0x00, 0x93, 0x40, 0x7F, 0x81, 0x40, 0x83, 0x46, 0x40,
    0x00, 0x83, 0x43, 0x40, 0x00, 0x83, 0x40, 0x40, 0x00, 0x93, 0x3C, 0x7F, 0x81, 0x40, 0x83, 0x3C,
    0x40, 0x00, 0x93, 0x46, 0x7F, 0x00, 0x93, 0x43, 0x7F, 0x00, 0x93, 0x40, 0x7F, 0x81, 0x40, 0x83,
    0x46, 0x40, 0x00, 0x83, 0x43, 0x40, 0x00, 0x83, 0x40, 0x40, 0x00, 0x93, 0x3C, 0x7F, 0x81, 0x40,
    0x83, 0x3C, 0x40, 0x00, 0x93, 0x46, 0x7F, 0x00, 0x93, 0x43, 0x7F, 0x00, 0x93, 0x40, 0x7F, 0x81,
    0x40, 0x83, 0x46, 0x40, 0x00, 0x83, 0x43, 0x40, 0x00, 0x83, 0x40, 0x40, 0x00, 0x93, 0x3C, 0x7F,
    0x81, 0x40, 0x83, 0x3C, 0x40, 0x81, 0x40, 0x93, 0x3C, 0x7F, 0x81, 0x40, 0x83, 0x3C, 0x40, 0x00,
    0x93, 0x45, 0x7F, 0x00, 0x93, 0x41, 0x7F, 0x81, 0x40, 0x83, 0x45, 0x40, 0x00, 0x83, 0x41, 0x40,
    0x00, 0x93, 0x3C, 0x7F, 0x81, 0x40, 0x83, 0x3C, 0x40, 0x81, 0x40, 0x93, 0x3A, 0x7F, 0x81, 0x40,
    0x83, 0x3A, 0x40, 0x00, 0x93, 0x43, 0x7F, 0x00, 0x93, 0x40, 0x7F, 0x00, 0x93, 0x3E, 0x7F, 0x81,
    0x40, 0x83, 0x43, 0x40, 0x00, 0x83, 0x40, 0x40, 0x00, 0x83, 0x3E, 0x40, 0x00, 0x93, 0x3A, 0x7F,
    0x81, 0x40, 0x83, 0x3A, 0x40, 0x81, 0x40, 0x93, 0x39, 0x7F, 0x81, 0x40, 0x83, 0x39, 0x40, 0x00,
    0x93, 0x41, 0x7F, 0x00, 0x93, 0x3E, 0x7F, 0x81, 0x40, 0x83, 0x41, 0x40, 0x00, 0x83, 0x3E, 0x40,
    0x00, 0x93, 0x39, 0x7F, 0x81, 0x40, 0x83, 0x39, 0x40, 0x00, 0x93, 0x40, 0x7F, 0x00, 0x93, 0x3D,
    0x7F, 0x81, 0x40, 0x83, 0x40, 0x40, 0x00, 0x83, 0x3D, 0x40, 0x00, 0x93, 0x39, 0x7F, 0x81, 0x40,
    0x83, 0x39, 0x40, 0x00, 0x93, 0x40, 0x7F, 0x00, 0x93, 0x3D, 0x7F, 0x81, 0x40, 0x83, 0x40, 0x40,
    0x00, 0x83, 0x3D, 0x40, 0x00, 0x93, 0x39, 0x7F, 0x81, 0x40, 0x83, 0x39, 0x40, 0x81, 0x40, 0x93,
    0x39, 0x7F, 0x81, 0x40, 0x83, 0x39, 0x40, 0x00, 0x93, 0x41, 0x7F, 0x00, 0x93, 0x3E, 0x7F, 0x81,
    0x40, 0x83, 0x41, 0x40, 0x00, 0x83, 0x3E, 0x40, 0x00, 0x93, 0x39, 0x7F, 0x81, 0x40, 0x83, 0x39,
    0x40, 0x00, 0x93, 0x41, 0x7F, 0x00, 0x93, 0x3E, 0x7F, 0x81, 0x40, 0x83, 0x41, 0x40, 0x00, 0x83,
    0x3E, 0x40, 0x00, 0x93, 0x39, 0x7F, 0x81, 0x40, 0x83, 0x39, 0x40, 0x00, 0x93, 0x41, 0x7F, 0x00,
    0x93, 0x3E, 0x7F, 0x81, 0x40, 0x83, 0x41, 0x40, 0x00, 0x83, 0x3E, 0x40, 0x00, 0x93, 0x39, 0x7F,
    0x81, 0x40, 0x83, 0x39, 0x40, 0x81, 0x40, 0x93, 0x39, 0x7F, 0x81, 0x40, 0x83, 0x39, 0x40, 0x00,
    0x93, 0x43, 0x7F, 0x00, 0x93, 0x40, 0x7F, 0x00, 0x93, 0x3D, 0x7F, 0x81, 0x40, 0x83, 0x43, 0x40,
    0x00, 0x83, 0x40, 0x40, 0x00, 0x83, 0x3D, 0x40, 0x00, 0x93, 0x39, 0x7F, 0x81, 0x40, 0x83, 0x39,
    0x40, 0x00, 0x93, 0x43, 0x7F, 0x00, 0x93, 0x40, 0x7F, 0x00, 0x93, 0x3D, 0x7F, 0x81, 0x40, 0x83,
    0x43, 0x40, 0x00, 0x83, 0x40, 0x40, 0x00, 0x83, 0x3D, 0x40, 0x00, 0x93, 0x39, 0x7F, 0x81, 0x40,
    0x83, 0x39, 0x40, 0x00, 0x93, 0x43, 0x7F, 0x00, 0x93, 0x40, 0x7F, 0x00, 0x93, 0x3D, 0x7F, 0x81,
    0x40, 0x83, 0x43, 0x40, 0x00, 0x83, 0x40, 0x40, 0x00, 0x83, 0x3D, 0x40, 0x00, 0x93, 0x39, 0x7F,
    0x81, 0x40, 0x83, 0x39, 0x40, 0x81, 0x40, 0x93, 0x39, 0x7F, 0x81, 0x40, 0x83, 0x39, 0x40, 0x00,
    0x93, 0x41, 0x7F, 0x00, 0x93, 0x3E, 0x7F, 0x81, 0x40, 0x83, 0x41, 0x40, 0x00, 0x83, 0x3E, 0x40,
    0x00, 0x93, 0x39, 0x7F, 0x81, 0x40, 0x83, 0x39, 0x40, 0x81, 0x40, 0x93, 0x39, 0x7F, 0x81, 0x40,
    0x83, 0x39, 0x40, 0x00, 0x93, 0x43, 0x7F, 0x00, 0x93, 0x40, 0x7F, 0x00, 0x93, 0x3D, 0x7F, 0x81,
    0x40, 0x83, 0x43, 0x40, 0x00, 0x83, 0x40, 0x40, 0x00, 0x83, 0x3D, 0x40, 0x00, 0x93, 0x39, 0x7F,
    0x81, 0x40, 0x83, 0x39, 0x40, 0x00, 0x93, 0x41, 0x7F, 0x00, 0x93, 0x3E, 0x7F, 0x00, 0x93, 0x39,
    0x7F, 0x86, 0x00, 0x83, 0x41, 0x40, 0x00, 0x83, 0x3E, 0x40, 0x00, 0x83, 0x39, 0x40, 0x00, 0x93,
    0x46, 0x7F, 0x00, 0x93, 0x43, 0x7F, 0x00, 0x93, 0x3E, 0x7F, 0x86, 0x00, 0x83, 0x46, 0x40, 0x00,
    0x83, 0x43, 0x40, 0x00, 0x83, 0x3E, 0x40, 0x00, 0x93, 0x45, 0x7F, 0x00, 0x93, 0x41, 0x7F, 0x00,
    0x93, 0x3E, 0x7F, 0x86, 0x00, 0x83, 0x45, 0x40, 0x00, 0x83, 0x41, 0x40, 0x00, 0x83, 0x3E, 0x40,
    0x00, 0x93, 0x43, 0x7F, 0x00, 0x93, 0x40, 0x7F, 0x00, 0x93, 0x3D, 0x7F, 0x00, 0x93, 0x39, 0x7F,
    0x86, 0x00, 0x83, 0x43, 0x40, 0x00, 0x83, 0x40, 0x40, 0x00, 0x83, 0x39, 0x40, 0x00, 0x83, 0x3D,
    0x40, 0x81, 0x40, 0x93, 0x41, 0x7F, 0x81, 0x40, 0x83, 0x41, 0x40, 0x00, 0x93, 0x45, 0x7F, 0x81,
    0x40, 0x83, 0x45, 0x40, 0x00, 0x93, 0x4A, 0x7F, 0x81, 0x40, 0x83, 0x4A, 0x40, 0x00, 0x93, 0x4D,
    0x7F, 0x00, 0x93, 0x45, 0x7F, 0x81, 0x40, 0x83, 0x4D, 0x40, 0x00, 0x83, 0x45, 0x40, 0x00, 0x93,
    0x4A, 0x7F, 0x00, 0x93, 0x41, 0x7F, 0x81, 0x40, 0x83, 0x4A, 0x40, 0x00, 0x83, 0x41, 0x40, 0x00,
    0x93, 0x4C, 0x7F, 0x00, 0x93, 0x43, 0x7F, 0x81, 0x40, 0x83, 0x4C, 0x40, 0x00, 0x83, 0x43, 0x40,
    0x00, 0x93, 0x49, 0x7F, 0x00, 0x93, 0x40, 0x7F, 0x81, 0x40, 0x83, 0x49, 0x40, 0x00, 0x83, 0x40,
    0x40, 0x00, 0x93, 0x4A, 0x7F, 0x00, 0x93, 0x41, 0x7F, 0x81, 0x40, 0x83, 0x4A, 0x40, 0x00, 0x83,
    0x41, 0x40, 0x00, 0x93, 0x39, 0x7F, 0x81, 0x40, 0x83, 0x39, 0x40, 0x00, 0x93, 0x3E, 0x7F, 0x81,
    0x40, 0x83, 0x3E, 0x40, 0x00, 0x93, 0x41, 0x7F, 0x81, 0x40, 0x83, 0x41, 0x40, 0x00, 0x93, 0x45,
    0x7F, 0x00, 0x93, 0x41, 0x7F, 0x81, 0x40, 0x83, 0x45, 0x40, 0x00, 0x83, 0x41, 0x40, 0x00, 0x93,
    0x41, 0x7F, 0x00, 0x93, 0x3E, 0x7F, 0x81, 0x40, 0x83, 0x41, 0x40, 0x00, 0x83, 0x3E, 0x40, 0x00,
    0x93, 0x43, 0x7F, 0x00, 0x93, 0x40, 0x7F, 0x81, 0x40, 0x83, 0x43, 0x40, 0x00, 0x83, 0x40, 0x40,
    0x00, 0x93, 0x40, 0x7F, 0x00, 0x93, 0x3D, 0x7F, 0x81, 0x40, 0x83, 0x40, 0x40, 0x00, 0x83, 0x3D,
    0x40, 0x00, 0x93, 0x3E, 0x7F, 0x86, 0x00, 0x83, 0x3E, 0x40, 0x00, 0x93, 0x41, 0x7F, 0x00, 0x93,
    0x39, 0x7F, 0x81, 0x40, 0x83, 0x41, 0x40, 0x00, 0x83, 0x39, 0x40, 0x00, 0x93, 0x3E, 0x7F, 0x00,
    0x93, 0x35, 0x7F, 0x81, 0x40, 0x83, 0x3E, 0x40, 0x00, 0x83, 0x35, 0x40, 0x00, 0x93, 0x40, 0x7F,
    0x00, 0x93, 0x37, 0x7F, 0x81, 0x40, 0x83, 0x40, 0x40, 0x00, 0x83, 0x37, 0x40, 0x00, 0x93, 0x3D,
    0x7F, 0x00, 0x93, 0x34, 0x7F, 0x81, 0x40, 0x83, 0x3D, 0x40, 0x00, 0x83, 0x34, 0x40, 0x00, 0x93,
    0x3E, 0x7F, 0x00, 0x93, 0x35, 0x7F, 0x8C, 0x00, 0x83, 0x3E, 0x40, 0x00, 0x83, 0x35, 0x40, 0x00,
    0xFF, 0x2F, 0x00, 0x4D, 0x54, 0x72, 0x6B, 0x00, 0x00, 0x04, 0xBA, 0x00, 0xC4, 0x00, 0x00, 0xFF,
    0x04, 0x0E, 0x61, 0x63, 0x6F, 0x75, 0x73, 0x74, 0x69, 0x63, 0x20, 0x67, 0x72, 0x61, 0x6E, 0x64,
    0x00, 0x94, 0x26, 0x7F, 0x00, 0x94, 0x32, 0x7F, 0x00, 0xFF, 0x59, 0x02, 0xFF, 0x01, 0x00, 0xFF,
    0x58, 0x04, 0x04, 0x02, 0x12, 0x08, 0x00, 0xFF, 0x03, 0x04, 0x64, 0x6F, 0x77, 0x6E, 0x00, 0xFF,
    0x51, 0x03, 0x0C, 0xB7, 0x35, 0x8C, 0x00, 0x84, 0x26, 0x40, 0x00, 0x84, 0x32, 0x40, 0x00, 0x94,
    0x26, 0x7F, 0x00, 0x94, 0x32, 0x7F, 0x8C, 0x00, 0x84, 0x26, 0x40, 0x00, 0x84, 0x32, 0x40, 0x00,
    0x94, 0x21, 0x7F, 0x00, 0x94, 0x2D, 0x7F, 0x8C, 0x00, 0x84, 0x21, 0x40, 0x00, 0x84, 0x2D, 0x40,
    0x00, 0x94, 0x26, 0x7F, 0x00, 0x94, 0x32, 0x7F, 0x86, 0x00, 0x84, 0x26, 0x40, 0x00, 0x84, 0x32,
    0x40, 0x00, 0x94, 0x22, 0x7F, 0x00, 0x94, 0x2E, 0x7F, 0x83, 0x00, 0x84, 0x22, 0x40, 0x00, 0x84,
    0x2E, 0x40, 0x00, 0x94, 0x22, 0x7F, 0x00, 0x94, 0x2E, 0x7F, 0x83, 0x00, 0x84, 0x22, 0x40, 0x00,
    0x84, 0x2E, 0x40, 0x00, 0x94, 0x21, 0x7F, 0x00, 0x94, 0x2D, 0x7F, 0x86, 0x00, 0x84, 0x21, 0x40,
    0x00, 0x84, 0x2D, 0x40, 0x00, 0x94, 0x21, 0x7F, 0x00, 0x94, 0x2D, 0x7F, 0x86, 0x00, 0x84, 0x21,
    0x40, 0x00, 0x84, 0x2D, 0x40, 0x00, 0x94, 0x26, 0x7F, 0x00, 0x94, 0x32, 0x7F, 0x8C, 0x00, 0x84,
    0x26, 0x40, 0x00, 0x84, 0x32, 0x40, 0x00, 0x94, 0x21, 0x7F, 0x00, 0x94, 0x2D, 0x7F, 0x8C, 0x00,
    0x84, 0x21, 0x40, 0x00, 0x84, 0x2D, 0x40, 0x00, 0x94, 0x26, 0x7F, 0x00, 0x94, 0x32, 0x7F, 0x86,
    0x00, 0x84, 0x26, 0x40, 0x00, 0x84, 0x32, 0x40, 0x00, 0x94, 0x21, 0x7F, 0x00, 0x94, 0x2D, 0x7F,
    0x86, 0x00, 0x84, 0x21, 0x40, 0x00, 0x84, 0x2D, 0x40, 0x00, 0x94, 0x26, 0x7F, 0x00, 0x94, 0x32,
    0x7F, 0x86, 0x00, 0x84, 0x26, 0x40, 0x00, 0x84, 0x32, 0x40, 0x00, 0x94, 0x26, 0x7F, 0x00, 0x94,
    0x32, 0x7F, 0x86, 0x00, 0x84, 0x26, 0x40, 0x00, 0x84, 0x32, 0x40, 0x00, 0x94, 0x29, 0x7F, 0x00,
    0x94, 0x35, 0x7F, 0x8C, 0x00, 0x84, 0x29, 0x40, 0x00, 0x84, 0x35, 0x40, 0x00, 0x94, 0x24, 0x7F,
    0x00, 0x94, 0x30, 0x7F, 0x8C, 0x00, 0x84, 0x24, 0x40, 0x00, 0x84, 0x30, 0x40, 0x00, 0x94, 0x1D,
    0x7F, 0x00, 0x94, 0x29, 0x7F, 0x86, 0x00, 0x84, 0x1D, 0x40, 0x00, 0x84, 0x29, 0x40, 0x00, 0x94,
    0x1F, 0x7F, 0x00, 0x94, 0x2B, 0x7F, 0x86, 0x00, 0x84, 0x1F, 0x40, 0x00, 0x84, 0x2B, 0x40, 0x00,
    0x94, 0x21, 0x7F, 0x00, 0x94, 0x2D, 0x7F, 0x8C, 0x00, 0x84, 0x21, 0x40, 0x00, 0x84, 0x2D, 0x40,
    0x00, 0x94, 0x26, 0x7F, 0x00, 0x94, 0x32, 0x7F, 0x8C, 0x00, 0x84, 0x26, 0x40, 0x00, 0x84, 0x32,
    0x40, 0x00, 0x94, 0x21, 0x7F, 0x00, 0x94, 0x2D, 0x7F, 0x8C, 0x00, 0x84, 0x21, 0x40, 0x00, 0x84,
    0x2D, 0x40, 0x00, 0x94, 0x26, 0x7F, 0x00, 0x94, 0x32, 0x7F, 0x86, 0x00, 0x84, 0x26, 0x40, 0x00,
    0x84, 0x32, 0x40, 0x00, 0x94, 0x21, 0x7F, 0x00, 0x94, 0x2D, 0x7F, 0x86, 0x00, 0x84, 0x21, 0x40,
    0x00, 0x84, 0x2D, 0x40, 0x00, 0x94, 0x26, 0x7F, 0x00, 0x94, 0x32, 0x7F, 0x86, 0x00, 0x84, 0x26,
    0x40, 0x00, 0x84, 0x32, 0x40, 0x00, 0x94, 0x1F, 0x7F, 0x00, 0x94, 0x2B, 0x7F, 0x86, 0x00, 0x84,
    0x1F, 0x40, 0x00, 0x84, 0x2B, 0x40, 0x00, 0x94, 0x21, 0x7F, 0x00, 0x94, 0x2D, 0x7F, 0x86, 0x00,
    0x84, 0x21, 0x40, 0x00, 0x84, 0x2D, 0x40, 0x00, 0x94, 0x21, 0x7F, 0x00, 0x94, 0x2D, 0x7F, 0x86,
    0x00, 0x84, 0x21, 0x40, 0x00, 0x84, 0x2D, 0x40, 0x00, 0x94, 0x26, 0x7F, 0x00, 0x94, 0x32, 0x7F,
    0x89, 0x00, 0x84, 0x26, 0x40, 0x00, 0x84, 0x32, 0x40, 0x00, 0x94, 0x21, 0x7F, 0x00, 0x94, 0x2D,
    0x7F, 0x83, 0x00, 0x84, 0x21, 0x40, 0x00, 0x84, 0x2D, 0x40, 0x00, 0x94, 0x26, 0x7F, 0x00, 0x94,
    0x32, 0x7F, 0x89, 0x00, 0x84, 0x26, 0x40, 0x00, 0x84, 0x32, 0x40, 0x00, 0x94, 0x21, 0x7F, 0x00,
    0x94, 0x2D, 0x7F, 0x83, 0x00, 0x84, 0x21, 0x40, 0x00, 0x84, 0x2D, 0x40, 0x00, 0x94, 0x26, 0x7F,
    0x00, 0x94, 0x32, 0x7F, 0x86, 0x00, 0x84, 0x26, 0x40, 0x00, 0x84, 0x32, 0x40, 0x00, 0x94, 0x21,
    0x7F, 0x00, 0x94, 0x2D, 0x7F, 0x86, 0x00, 0x84, 0x21, 0x40, 0x00, 0x84, 0x2D, 0x40, 0x00, 0x94,
    0x26, 0x7F, 0x00, 0x94, 0x32, 0x7F, 0x8C, 0x00, 0x84, 0x26, 0x40, 0x00, 0x84, 0x32, 0x40, 0x00,
    0x94, 0x26, 0x7F, 0x00, 0x94, 0x32, 0x7F, 0x8C, 0x00, 0x84, 0x26, 0x40, 0x00, 0x84, 0x32, 0x40,
    0x00, 0x94, 0x26, 0x7F, 0x00, 0x94, 0x32, 0x7F, 0x8C, 0x00, 0x84, 0x26, 0x40, 0x00, 0x84, 0x32,
    0x40, 0x00, 0x94, 0x21, 0x7F, 0x00, 0x94, 0x2D, 0x7F, 0x8C, 0x00, 0x84, 0x21, 0x40, 0x00, 0x84,
    0x2D, 0x40, 0x00, 0x94, 0x26, 0x7F, 0x00, 0x94, 0x32, 0x7F, 0x86, 0x00, 0x84, 0x26, 0x40, 0x00,
    0x84, 0x32, 0x40, 0x00, 0x94, 0x22, 0x7F, 0x00, 0x94, 0x2E, 0x7F, 0x83, 0x00, 0x84, 0x22, 0x40,
    0x00, 0x84, 0x2E, 0x40, 0x00, 0x94, 0x22, 0x7F, 0x00, 0x94, 0x2E, 0x7F, 0x83, 0x00, 0x84, 0x22,
    0x40, 0x00, 0x84, 0x2E, 0x40, 0x00, 0x94, 0x21, 0x7F, 0x00, 0x94, 0x2D, 0x7F, 0x86, 0x00, 0x84,
    0x21, 0x40, 0x00, 0x84, 0x2D, 0x40, 0x00, 0x94, 0x21, 0x7F, 0x00, 0x94, 0x2D, 0x7F, 0x86, 0x00,
    0x84, 0x21, 0x40, 0x00, 0x84, 0x2D, 0x40, 0x00, 0x94, 0x26, 0x7F, 0x00, 0x94, 0x32, 0x7F, 0x8C,
    0x00, 0x84, 0x26, 0x40, 0x00, 0x84, 0x32, 0x40, 0x00, 0x94, 0x21, 0x7F, 0x00, 0x94, 0x2D, 0x7F,
    0x8C, 0x00, 0x84, 0x21, 0x40, 0x00, 0x84, 0x2D, 0x40, 0x00, 0x94, 0x26, 0x7F, 0x00, 0x94, 0x32,
    0x7F, 0x86, 0x00, 0x84, 0x26, 0x40, 0x00, 0x84, 0x32, 0x40, 0x00, 0x94, 0x21, 0x7F, 0x00, 0x94,
    0x2D, 0x7F, 0x86, 0x00, 0x84, 0x21, 0x40, 0x00, 0x84, 0x2D, 0x40, 0x00, 0x94, 0x26, 0x7F, 0x00,
    0x94, 0x32, 0x7F, 0x86, 0x00, 0x84, 0x26, 0x40, 0x00, 0x84, 0x32, 0x40, 0x00, 0x94, 0x26, 0x7F,
    0x00, 0x94, 0x32, 0x7F, 0x86, 0x00, 0x84, 0x26, 0x40, 0x00, 0x84, 0x32, 0x40, 0x00, 0x94, 0x29,
    0x7F, 0x00, 0x94, 0x35, 0x7F, 0x8C, 0x00, 0x84, 0x29, 0x40, 0x00, 0x84, 0x35, 0x40, 0x00, 0x94,
    0x24, 0x7F, 0x00, 0x94, 0x30, 0x7F, 0x8C, 0x00, 0x84, 0x24, 0x40, 0x00, 0x84, 0x30, 0x40, 0x00,
    0x94, 0x1D, 0x7F, 0x00, 0x94, 0x29, 0x7F, 0x86, 0x00, 0x84, 0x1D, 0x40, 0x00, 0x84, 0x29, 0x40,
    0x00, 0x94, 0x1F, 0x7F, 0x00, 0x94, 0x2B, 0x7F, 0x86, 0x00, 0x84, 0x1F, 0x40, 0x00, 0x84, 0x2B,
    0x40, 0x00, 0x94, 0x21, 0x7F, 0x00, 0x94, 0x2D, 0x7F, 0x8C, 0x00, 0x84, 0x21, 0x40, 0x00, 0x84,
    0x2D, 0x40, 0x00, 0x94, 0x26, 0x7F, 0x00, 0x94, 0x32, 0x7F, 0x8C, 0x00, 0x84, 0x26, 0x40, 0x00,
    0x84, 0x32, 0x40, 0x00, 0x94, 0x21, 0x7F, 0x00, 0x94, 0x2D, 0x7F, 0x8C, 0x00, 0x84, 0x21, 0x40,
    0x00, 0x84, 0x2D, 0x40, 0x00, 0x94, 0x26, 0x7F, 0x00, 0x94, 0x32, 0x7F, 0x86, 0x00, 0x84, 0x26,
    0x40, 0x00, 0x84, 0x32, 0x40, 0x00, 0x94, 0x21, 0x7F, 0x00, 0x94, 0x2D, 0x7F, 0x86, 0x00, 0x84,
    0x21, 0x40, 0x00, 0x84, 0x2D, 0x40, 0x00, 0x94, 0x26, 0x7F, 0x00, 0x94, 0x32, 0x7F, 0x86, 0x00,
    0x84, 0x26, 0x40, 0x00, 0x84, 0x32, 0x40, 0x00, 0x94, 0x1F, 0x7F, 0x00, 0x94, 0x2B, 0x7F, 0x86,
    0x00, 0x84, 0x1F, 0x40, 0x00, 0x84, 0x2B, 0x40, 0x00, 0x94, 0x21, 0x7F, 0x00, 0x94, 0x2D, 0x7F,
    0x86, 0x00, 0x84, 0x21, 0x40, 0x00, 0x84, 0x2D, 0x40, 0x00, 0x94, 0x21, 0x7F, 0x00, 0x94, 0x2D,
    0x7F, 0x86, 0x00, 0x84, 0x21, 0x40, 0x00, 0x84, 0x2D, 0x40, 0x00, 0x94, 0x26, 0x7F, 0x00, 0x94,
    0x32, 0x7F, 0x89, 0x00, 0x84, 0x26, 0x40, 0x00, 0x84, 0x32, 0x40, 0x00, 0x94, 0x21, 0x7F, 0x00,
    0x94, 0x2D, 0x7F, 0x83, 0x00, 0x84, 0x21, 0x40, 0x00, 0x84, 0x2D, 0x40, 0x00, 0x94, 0x26, 0x7F,
    0x00, 0x94, 0x32, 0x7F, 0x89, 0x00, 0x84, 0x26, 0x40, 0x00, 0x84, 0x32, 0x40, 0x00, 0x94, 0x21,
    0x7F, 0x00, 0x94, 0x2D, 0x7F, 0x83, 0x00, 0x84, 0x21, 0x40, 0x00, 0x84, 0x2D, 0x40, 0x00, 0x94,
    0x26, 0x7F, 0x00, 0x94, 0x32, 0x7F, 0x86, 0x00, 0x84, 0x26, 0x40, 0x00, 0x84, 0x32, 0x40, 0x00,
    0x94, 0x21, 0x7F, 0x00, 0x94, 0x2D, 0x7F, 0x86, 0x00, 0x84, 0x21, 0x40, 0x00, 0x84, 0x2D, 0x40,
    0x00, 0x94, 0x1A, 0x7F, 0x00, 0x94, 0x26, 0x7F, 0x8C, 0x00, 0x84, 0x1A, 0x40, 0x00, 0x84, 0x26,
    0x40, 0x00, 0xFF, 0x2F, 0x00
};
